<svg width="33" height="19" viewBox="0 0 33 19" fill="none" xmlns="http://www.w3.org/2000/svg">
<path d="M14.1992 7.46484C14.1758 8.06641 14.0547 8.61719 13.8359 9.11719C13.6172 9.61719 13.3281 10.0703 12.9688 10.4766C12.6094 10.875 12.1914 11.2344 11.7148 11.5547C11.2383 11.8672 10.7305 12.1367 10.1914 12.3633L13.6016 17.7305L11.1758 18.5273L7.89453 13.0547C7.51953 13.125 7.12891 13.1836 6.72266 13.2305C6.32422 13.2773 5.88281 13.3008 5.39844 13.3008C5.00781 13.3008 4.57812 13.2852 4.10938 13.2539C3.64844 13.2148 3.16406 13.1484 2.65625 13.0547L2.70312 18.0234L0.230469 18.1172V1.53516C0.902344 1.33203 1.57422 1.17969 2.24609 1.07812C2.91797 0.976562 3.53125 0.898438 4.08594 0.84375C4.72656 0.789062 5.34766 0.753906 5.94922 0.738281C6.45703 0.738281 7.01953 0.773438 7.63672 0.84375C8.25391 0.914062 8.87109 1.03906 9.48828 1.21875C10.1133 1.39844 10.7148 1.64844 11.293 1.96875C11.8789 2.28906 12.3906 2.69922 12.8281 3.19922C13.2734 3.69141 13.6211 4.28906 13.8711 4.99219C14.1211 5.69531 14.2305 6.51953 14.1992 7.46484ZM5.94922 3.09375C5.58984 3.09375 5.21875 3.10938 4.83594 3.14062C4.50781 3.16406 4.14453 3.19922 3.74609 3.24609C3.34766 3.28516 2.96094 3.34766 2.58594 3.43359L2.63281 10.8984C3 10.9688 3.36719 11.0195 3.73438 11.0508C4.10938 11.0742 4.47266 11.0859 4.82422 11.0859C5.76172 11.0859 6.64844 10.9805 7.48438 10.7695C8.32812 10.5508 9.06641 10.2539 9.69922 9.87891C10.332 9.50391 10.8359 9.0625 11.2109 8.55469C11.5859 8.03906 11.7734 7.48438 11.7734 6.89062C11.7734 6.28906 11.6289 5.75391 11.3398 5.28516C11.0586 4.81641 10.6602 4.42188 10.1445 4.10156C9.62891 3.77344 9.01172 3.52344 8.29297 3.35156C7.58203 3.17969 6.80078 3.09375 5.94922 3.09375Z" fill="#463C74"/>
<path d="M32.0352 13.418C32.0586 14.2461 31.9258 14.957 31.6367 15.5508C31.3477 16.1445 30.9531 16.6445 30.4531 17.0508C29.9609 17.4492 29.3828 17.7695 28.7188 18.0117C28.0625 18.2617 27.3711 18.4492 26.6445 18.5742C25.9258 18.707 25.1992 18.793 24.4648 18.832C23.7305 18.8711 23.043 18.8906 22.4023 18.8906C21.7539 18.8906 21.0312 18.8711 20.2344 18.832C19.4453 18.8008 18.5781 18.7461 17.6328 18.668L17.1289 1.60547C17.9414 1.45703 18.7305 1.34766 19.4961 1.27734C20.2617 1.19922 20.9453 1.14453 21.5469 1.11328C22.25 1.08203 22.9141 1.07031 23.5391 1.07812C24.1328 1.09375 24.7305 1.12891 25.332 1.18359C25.9336 1.23828 26.5078 1.33203 27.0547 1.46484C27.6094 1.58984 28.125 1.76562 28.6016 1.99219C29.0781 2.21875 29.4922 2.50781 29.8438 2.85938C30.1953 3.21094 30.4727 3.63672 30.6758 4.13672C30.8789 4.62891 30.9805 5.21094 30.9805 5.88281C30.9805 6.75781 30.8203 7.50781 30.5 8.13281C30.1797 8.75 29.7617 9.26172 29.2461 9.66797C29.5742 9.77734 29.8672 9.91406 30.125 10.0781C30.3828 10.2344 30.6055 10.4102 30.793 10.6055C30.9883 10.8008 31.1523 11.0078 31.2852 11.2266C31.4258 11.4375 31.543 11.6484 31.6367 11.8594C31.8477 12.3438 31.9805 12.8633 32.0352 13.418ZM23.5859 3.21094C23.2188 3.21094 22.8203 3.22266 22.3906 3.24609C22.0234 3.26172 21.6016 3.29297 21.125 3.33984C20.6562 3.38672 20.1562 3.44922 19.625 3.52734L19.8125 9.50391C20.4844 9.48828 21.0938 9.46875 21.6406 9.44531C22.1953 9.41406 22.6719 9.38672 23.0703 9.36328C23.5391 9.33203 23.957 9.30078 24.3242 9.26953C24.9023 9.23828 25.4531 9.14453 25.9766 8.98828C26.5078 8.82422 26.9688 8.60156 27.3594 8.32031C27.75 8.03906 28.0508 7.69531 28.2617 7.28906C28.4805 6.88281 28.5625 6.41406 28.5078 5.88281C28.4609 5.49219 28.3516 5.15234 28.1797 4.86328C28.0156 4.56641 27.8047 4.31641 27.5469 4.11328C27.2969 3.90234 27.0078 3.73438 26.6797 3.60938C26.3594 3.47656 26.0234 3.37891 25.6719 3.31641C25.3281 3.24609 24.9766 3.20703 24.6172 3.19922C24.2578 3.18359 23.9141 3.1875 23.5859 3.21094ZM25.8125 11.1562C25.6172 11.1719 25.4453 11.1875 25.2969 11.2031C25.1562 11.2109 25.0312 11.2188 24.9219 11.2266C24.8203 11.2344 24.7266 11.2422 24.6406 11.25C24.5625 11.2578 24.4883 11.2617 24.418 11.2617C23.9883 11.3008 23.5273 11.3359 23.0352 11.3672C22.6133 11.3984 22.1289 11.4336 21.582 11.4727C21.0352 11.5039 20.4688 11.5352 19.8828 11.5664L20.0586 16.7578C20.2773 16.7734 20.4922 16.7812 20.7031 16.7812C20.9141 16.7812 21.1211 16.7812 21.3242 16.7812C21.6914 16.7812 22.1523 16.7812 22.707 16.7812C23.2695 16.7734 23.8555 16.7461 24.4648 16.6992C25.082 16.6445 25.6953 16.5547 26.3047 16.4297C26.9219 16.2969 27.4727 16.1094 27.957 15.8672C28.4492 15.6172 28.8398 15.2969 29.1289 14.9062C29.4258 14.5156 29.5625 14.0273 29.5391 13.4414C29.4688 13.0195 29.2891 12.6406 29 12.3047C28.875 12.1641 28.7188 12.0234 28.5312 11.8828C28.3516 11.7422 28.1328 11.6211 27.875 11.5195C27.6172 11.4102 27.3164 11.3242 26.9727 11.2617C26.6367 11.1914 26.25 11.1562 25.8125 11.1562Z" fill="#B4D51E"/>
</svg>
